<svg xmlns="http://www.w3.org/2000/svg" width="810" viewBox="0 0 810 810" height="810" version="1.0"><defs><clipPath id="a"><path d="M 109 0 L 701 0 L 701 583.472656 L 109 583.472656 Z M 109 0"/></clipPath></defs><path fill="#FFF" d="M-81 -81H891V891H-81z"/><path fill="#FFF" d="M-81 -81H891V891H-81z"/><path fill="#FFE6DE" d="M-81 -81H891V891H-81z"/><g clip-path="url(#a)"><path d="M 613.382812 584.023438 L 196.785156 584.023438 C 148.550781 584.023438 109.539062 545.039062 109.539062 497.074219 L 109.539062 77.210938 C 109.539062 29.011719 148.550781 -9.976562 196.785156 -9.976562 L 613.621094 -9.976562 C 661.617188 -9.976562 700.628906 29.011719 700.628906 77.210938 L 700.628906 497.074219 C 700.628906 545.039062 661.617188 584.023438 613.382812 584.023438 Z M 613.382812 584.023438" fill-opacity=".149"/></g><path fill="#43ADA5" d="M 604.398438 574.574219 L 196.3125 574.574219 C 148.316406 574.574219 109.539062 535.824219 109.539062 487.859375 L 109.539062 76.738281 C 109.539062 28.773438 148.316406 -9.976562 196.3125 -9.976562 L 604.398438 -9.976562 C 652.394531 -9.976562 691.171875 28.773438 691.171875 76.738281 L 691.171875 487.859375 C 691.40625 535.824219 652.394531 574.574219 604.398438 574.574219 Z M 604.398438 574.574219"/><path fill="#F04E3E" d="M 691.40625 68.230469 L 691.40625 167.230469 L 109.539062 167.230469 L 109.539062 68.230469 C 109.539062 24.992188 144.53125 -9.976562 187.800781 -9.976562 L 612.910156 -9.976562 C 656.179688 -9.976562 691.40625 24.992188 691.40625 68.230469 Z M 691.40625 68.230469"/><path d="M 635.136719 327.191406 C 635.136719 331.046875 635.039062 334.898438 634.851562 338.75 C 634.664062 342.601562 634.378906 346.445312 634 350.28125 C 633.621094 354.117188 633.148438 357.941406 632.585938 361.757812 C 632.019531 365.570312 631.359375 369.367188 630.605469 373.148438 C 629.851562 376.929688 629.007812 380.691406 628.070312 384.429688 C 627.132812 388.167969 626.105469 391.882812 624.984375 395.574219 C 623.867188 399.261719 622.65625 402.921875 621.355469 406.550781 C 620.054688 410.183594 618.667969 413.777344 617.191406 417.339844 C 615.714844 420.902344 614.152344 424.425781 612.503906 427.910156 C 610.855469 431.394531 609.121094 434.835938 607.300781 438.238281 C 605.484375 441.636719 603.582031 444.992188 601.597656 448.296875 C 599.613281 451.605469 597.550781 454.859375 595.410156 458.066406 C 593.265625 461.273438 591.042969 464.421875 588.746094 467.519531 C 586.449219 470.617188 584.074219 473.652344 581.628906 476.632812 C 579.179688 479.613281 576.660156 482.53125 574.070312 485.390625 C 571.480469 488.246094 568.820312 491.039062 566.09375 493.761719 C 563.363281 496.488281 560.570312 499.148438 557.714844 501.734375 C 554.855469 504.324219 551.933594 506.84375 548.953125 509.289062 C 545.96875 511.734375 542.929688 514.105469 539.832031 516.402344 C 536.734375 518.699219 533.578125 520.917969 530.371094 523.058594 C 527.164062 525.199219 523.90625 527.261719 520.597656 529.246094 C 517.289062 531.226562 513.933594 533.125 510.53125 534.945312 C 507.128906 536.761719 503.683594 538.496094 500.195312 540.144531 C 496.707031 541.789062 493.183594 543.351562 489.617188 544.828125 C 486.054688 546.304688 482.457031 547.691406 478.824219 548.988281 C 475.191406 550.289062 471.527344 551.496094 467.835938 552.617188 C 464.144531 553.734375 460.429688 554.761719 456.6875 555.699219 C 452.945312 556.636719 449.179688 557.480469 445.398438 558.234375 C 441.613281 558.984375 437.8125 559.644531 433.996094 560.210938 C 430.179688 560.777344 426.355469 561.246094 422.515625 561.625 C 418.675781 562.003906 414.828125 562.285156 410.976562 562.476562 C 407.121094 562.664062 403.265625 562.757812 399.410156 562.757812 C 395.550781 562.757812 391.695312 562.664062 387.84375 562.476562 C 383.988281 562.285156 380.144531 562.003906 376.304688 561.625 C 372.464844 561.246094 368.636719 560.777344 364.820312 560.210938 C 361.003906 559.644531 357.203125 558.984375 353.421875 558.234375 C 349.636719 557.480469 345.875 556.636719 342.132812 555.699219 C 338.390625 554.761719 334.671875 553.734375 330.980469 552.617188 C 327.289062 551.496094 323.628906 550.289062 319.996094 548.988281 C 316.363281 547.691406 312.765625 546.304688 309.199219 544.828125 C 305.636719 543.351562 302.109375 541.789062 298.625 540.140625 C 295.136719 538.496094 291.691406 536.761719 288.289062 534.945312 C 284.886719 533.125 281.53125 531.226562 278.222656 529.246094 C 274.914062 527.261719 271.65625 525.199219 268.445312 523.058594 C 265.238281 520.917969 262.085938 518.699219 258.988281 516.402344 C 255.886719 514.105469 252.847656 511.734375 249.867188 509.289062 C 246.882812 506.84375 243.964844 504.324219 241.105469 501.734375 C 238.246094 499.148438 235.453125 496.488281 232.726562 493.761719 C 229.996094 491.039062 227.339844 488.246094 224.746094 485.390625 C 222.15625 482.53125 219.636719 479.613281 217.191406 476.632812 C 214.742188 473.652344 212.371094 470.617188 210.070312 467.519531 C 207.773438 464.421875 205.554688 461.273438 203.410156 458.066406 C 201.265625 454.859375 199.203125 451.605469 197.21875 448.296875 C 195.238281 444.992188 193.335938 441.636719 191.515625 438.238281 C 189.699219 434.835938 187.964844 431.394531 186.316406 427.910156 C 184.664062 424.425781 183.101562 420.902344 181.625 417.339844 C 180.148438 413.777344 178.761719 410.183594 177.460938 406.550781 C 176.164062 402.921875 174.953125 399.261719 173.832031 395.574219 C 172.714844 391.882812 171.683594 388.167969 170.746094 384.429688 C 169.808594 380.691406 168.964844 376.929688 168.210938 373.148438 C 167.460938 369.367188 166.800781 365.570312 166.234375 361.757812 C 165.667969 357.941406 165.195312 354.117188 164.816406 350.28125 C 164.441406 346.445312 164.15625 342.601562 163.96875 338.75 C 163.777344 334.898438 163.683594 331.046875 163.683594 327.191406 C 163.683594 323.335938 163.777344 319.484375 163.96875 315.632812 C 164.15625 311.78125 164.441406 307.9375 164.816406 304.101562 C 165.195312 300.265625 165.667969 296.441406 166.234375 292.625 C 166.800781 288.8125 167.460938 285.015625 168.210938 281.234375 C 168.964844 277.453125 169.808594 273.691406 170.746094 269.953125 C 171.683594 266.214844 172.714844 262.5 173.832031 258.808594 C 174.953125 255.121094 176.164062 251.460938 177.460938 247.832031 C 178.761719 244.203125 180.148438 240.605469 181.625 237.042969 C 183.101562 233.480469 184.664062 229.957031 186.316406 226.472656 C 187.964844 222.988281 189.699219 219.546875 191.515625 216.144531 C 193.335938 212.746094 195.238281 209.390625 197.21875 206.085938 C 199.203125 202.777344 201.265625 199.523438 203.410156 196.316406 C 205.554688 193.113281 207.773438 189.960938 210.070312 186.863281 C 212.371094 183.765625 214.742188 180.730469 217.191406 177.75 C 219.636719 174.769531 222.15625 171.851562 224.746094 168.992188 C 227.339844 166.136719 229.996094 163.347656 232.726562 160.621094 C 235.453125 157.894531 238.246094 155.234375 241.105469 152.648438 C 243.964844 150.058594 246.882812 147.539062 249.867188 145.09375 C 252.847656 142.648438 255.886719 140.277344 258.988281 137.980469 C 262.085938 135.683594 265.238281 133.464844 268.445312 131.324219 C 271.65625 129.183594 274.914062 127.121094 278.222656 125.136719 C 281.53125 123.15625 284.886719 121.257812 288.289062 119.4375 C 291.691406 117.621094 295.136719 115.890625 298.625 114.242188 C 302.109375 112.59375 305.636719 111.03125 309.199219 109.554688 C 312.765625 108.078125 316.363281 106.691406 319.996094 105.394531 C 323.628906 104.09375 327.289062 102.886719 330.980469 101.765625 C 334.671875 100.648438 338.390625 99.621094 342.132812 98.683594 C 345.875 97.746094 349.636719 96.902344 353.421875 96.148438 C 357.207031 95.398438 361.003906 94.738281 364.820312 94.171875 C 368.636719 93.609375 372.464844 93.136719 376.304688 92.757812 C 380.144531 92.378906 383.988281 92.097656 387.84375 91.90625 C 391.695312 91.71875 395.550781 91.625 399.410156 91.625 C 403.265625 91.625 407.121094 91.71875 410.976562 91.90625 C 414.828125 92.097656 418.675781 92.378906 422.515625 92.757812 C 426.355469 93.136719 430.179688 93.609375 433.996094 94.171875 C 437.8125 94.738281 441.613281 95.398438 445.398438 96.148438 C 449.179688 96.902344 452.945312 97.746094 456.6875 98.683594 C 460.429688 99.621094 464.144531 100.648438 467.835938 101.765625 C 471.527344 102.886719 475.191406 104.09375 478.824219 105.394531 C 482.457031 106.691406 486.054688 108.078125 489.617188 109.554688 C 493.183594 111.03125 496.707031 112.59375 500.195312 114.242188 C 503.683594 115.890625 507.128906 117.621094 510.53125 119.4375 C 513.933594 121.257812 517.289062 123.15625 520.597656 125.136719 C 523.90625 127.121094 527.164062 129.183594 530.371094 131.324219 C 533.578125 133.464844 536.734375 135.683594 539.832031 137.980469 C 542.929688 140.277344 545.96875 142.648438 548.953125 145.09375 C 551.933594 147.539062 554.855469 150.058594 557.714844 152.648438 C 560.570312 155.234375 563.363281 157.894531 566.09375 160.621094 C 568.820312 163.347656 571.480469 166.136719 574.070312 168.992188 C 576.660156 171.851562 579.179688 174.769531 581.628906 177.75 C 584.074219 180.730469 586.449219 183.765625 588.746094 186.863281 C 591.042969 189.960938 593.265625 193.113281 595.410156 196.316406 C 597.550781 199.523438 599.613281 202.777344 601.597656 206.085938 C 603.582031 209.390625 605.484375 212.746094 607.300781 216.144531 C 609.121094 219.546875 610.855469 222.988281 612.503906 226.472656 C 614.152344 229.957031 615.714844 233.480469 617.191406 237.042969 C 618.667969 240.605469 620.054688 244.203125 621.355469 247.832031 C 622.65625 251.460938 623.867188 255.121094 624.984375 258.808594 C 626.105469 262.5 627.132812 266.214844 628.070312 269.953125 C 629.007812 273.691406 629.851562 277.453125 630.605469 281.234375 C 631.359375 285.015625 632.019531 288.8125 632.585938 292.625 C 633.148438 296.441406 633.621094 300.265625 634 304.101562 C 634.378906 307.9375 634.664062 311.78125 634.851562 315.632812 C 635.039062 319.484375 635.136719 323.335938 635.136719 327.191406 Z M 635.136719 327.191406" fill-opacity=".149"/><path fill="#43434F" d="M 630.644531 321.046875 C 630.644531 324.832031 630.550781 328.609375 630.363281 332.386719 C 630.179688 336.164062 629.902344 339.933594 629.53125 343.699219 C 629.160156 347.460938 628.695312 351.214844 628.140625 354.953125 C 627.585938 358.695312 626.9375 362.421875 626.199219 366.128906 C 625.460938 369.839844 624.632812 373.527344 623.714844 377.195312 C 622.792969 380.863281 621.785156 384.507812 620.6875 388.128906 C 619.585938 391.746094 618.402344 395.335938 617.125 398.898438 C 615.851562 402.457031 614.488281 405.984375 613.042969 409.476562 C 611.59375 412.972656 610.058594 416.429688 608.441406 419.847656 C 606.824219 423.265625 605.125 426.644531 603.339844 429.976562 C 601.554688 433.3125 599.691406 436.601562 597.746094 439.847656 C 595.800781 443.089844 593.777344 446.285156 591.671875 449.429688 C 589.570312 452.574219 587.390625 455.664062 585.136719 458.703125 C 582.882812 461.738281 580.554688 464.71875 578.15625 467.644531 C 575.753906 470.566406 573.285156 473.429688 570.742188 476.230469 C 568.199219 479.035156 565.59375 481.773438 562.917969 484.445312 C 560.242188 487.121094 557.5 489.726562 554.695312 492.265625 C 551.890625 494.804688 549.027344 497.277344 546.101562 499.675781 C 543.175781 502.074219 540.195312 504.398438 537.15625 506.652344 C 534.117188 508.90625 531.023438 511.082031 527.875 513.183594 C 524.730469 515.285156 521.53125 517.308594 518.289062 519.25 C 515.042969 521.195312 511.75 523.058594 508.414062 524.839844 C 505.074219 526.625 501.695312 528.324219 498.273438 529.941406 C 494.855469 531.558594 491.394531 533.089844 487.898438 534.539062 C 484.402344 535.984375 480.871094 537.34375 477.308594 538.621094 C 473.746094 539.894531 470.152344 541.078125 466.53125 542.175781 C 462.910156 543.273438 459.265625 544.285156 455.59375 545.203125 C 451.921875 546.121094 448.230469 546.949219 444.519531 547.6875 C 440.808594 548.425781 437.082031 549.070312 433.339844 549.625 C 429.59375 550.179688 425.839844 550.644531 422.074219 551.015625 C 418.308594 551.386719 414.535156 551.664062 410.753906 551.847656 C 406.976562 552.035156 403.195312 552.128906 399.410156 552.128906 C 395.625 552.128906 391.84375 552.035156 388.0625 551.847656 C 384.285156 551.664062 380.511719 551.386719 376.746094 551.015625 C 372.976562 550.644531 369.222656 550.179688 365.480469 549.625 C 361.738281 549.070312 358.007812 548.425781 354.296875 547.6875 C 350.585938 546.949219 346.894531 546.121094 343.222656 545.203125 C 339.554688 544.28125 335.90625 543.273438 332.285156 542.175781 C 328.664062 541.078125 325.070312 539.894531 321.507812 538.621094 C 317.945312 537.34375 314.417969 535.984375 310.917969 534.539062 C 307.421875 533.089844 303.964844 531.558594 300.542969 529.941406 C 297.121094 528.324219 293.742188 526.625 290.40625 524.839844 C 287.070312 523.058594 283.777344 521.195312 280.53125 519.25 C 277.285156 517.308594 274.089844 515.285156 270.941406 513.183594 C 267.796875 511.082031 264.703125 508.90625 261.664062 506.652344 C 258.625 504.398438 255.640625 502.074219 252.714844 499.675781 C 249.789062 497.277344 246.925781 494.804688 244.121094 492.265625 C 241.316406 489.726562 238.578125 487.121094 235.902344 484.445312 C 233.226562 481.773438 230.617188 479.035156 228.078125 476.230469 C 225.535156 473.429688 223.0625 470.566406 220.664062 467.644531 C 218.261719 464.71875 215.933594 461.738281 213.679688 458.703125 C 211.425781 455.664062 209.246094 452.574219 207.144531 449.429688 C 205.042969 446.285156 203.019531 443.089844 201.074219 439.847656 C 199.128906 436.601562 197.261719 433.3125 195.480469 429.976562 C 193.695312 426.644531 191.996094 423.265625 190.375 419.847656 C 188.757812 416.429688 187.226562 412.972656 185.777344 409.476562 C 184.328125 405.984375 182.96875 402.457031 181.691406 398.898438 C 180.417969 395.335938 179.230469 391.746094 178.132812 388.128906 C 177.035156 384.507812 176.023438 380.863281 175.105469 377.195312 C 174.1875 373.527344 173.355469 369.839844 172.617188 366.128906 C 171.878906 362.421875 171.234375 358.695312 170.679688 354.953125 C 170.121094 351.214844 169.660156 347.460938 169.289062 343.699219 C 168.917969 339.933594 168.640625 336.164062 168.453125 332.386719 C 168.269531 328.609375 168.175781 324.832031 168.175781 321.046875 C 168.175781 317.265625 168.269531 313.488281 168.453125 309.710938 C 168.640625 305.933594 168.917969 302.164062 169.289062 298.398438 C 169.660156 294.636719 170.121094 290.882812 170.679688 287.140625 C 171.234375 283.402344 171.878906 279.675781 172.617188 275.96875 C 173.355469 272.257812 174.1875 268.570312 175.105469 264.902344 C 176.023438 261.234375 177.035156 257.589844 178.132812 253.96875 C 179.230469 250.351562 180.417969 246.761719 181.691406 243.199219 C 182.96875 239.640625 184.328125 236.113281 185.777344 232.617188 C 187.226562 229.125 188.757812 225.667969 190.375 222.25 C 191.996094 218.832031 193.695312 215.453125 195.480469 212.117188 C 197.261719 208.785156 199.128906 205.492188 201.074219 202.25 C 203.019531 199.007812 205.042969 195.8125 207.144531 192.667969 C 209.246094 189.523438 211.425781 186.433594 213.679688 183.394531 C 215.933594 180.359375 218.261719 177.378906 220.664062 174.453125 C 223.0625 171.53125 225.535156 168.667969 228.078125 165.867188 C 230.617188 163.0625 233.226562 160.324219 235.902344 157.652344 C 238.578125 154.976562 241.316406 152.371094 244.121094 149.832031 C 246.925781 147.289062 249.789062 144.820312 252.714844 142.421875 C 255.640625 140.023438 258.625 137.695312 261.664062 135.445312 C 264.703125 133.191406 267.796875 131.015625 270.941406 128.914062 C 274.089844 126.8125 277.285156 124.789062 280.53125 122.84375 C 283.777344 120.902344 287.070312 119.039062 290.40625 117.253906 C 293.742188 115.472656 297.121094 113.773438 300.542969 112.15625 C 303.964844 110.539062 307.421875 109.007812 310.917969 107.558594 C 314.417969 106.113281 317.945312 104.75 321.507812 103.476562 C 325.070312 102.203125 328.664062 101.019531 332.285156 99.917969 C 335.90625 98.820312 339.554688 97.8125 343.222656 96.894531 C 346.894531 95.976562 350.585938 95.148438 354.296875 94.410156 C 358.007812 93.671875 361.738281 93.027344 365.480469 92.472656 C 369.222656 91.914062 372.976562 91.453125 376.746094 91.082031 C 380.511719 90.710938 384.285156 90.433594 388.0625 90.25 C 391.84375 90.0625 395.625 89.96875 399.410156 89.96875 C 403.195312 89.96875 406.976562 90.0625 410.753906 90.25 C 414.535156 90.433594 418.308594 90.710938 422.074219 91.082031 C 425.839844 91.453125 429.59375 91.914062 433.339844 92.472656 C 437.082031 93.027344 440.808594 93.671875 444.519531 94.410156 C 448.230469 95.148438 451.921875 95.976562 455.59375 96.894531 C 459.265625 97.8125 462.910156 98.820312 466.53125 99.917969 C 470.15625 101.019531 473.746094 102.203125 477.308594 103.476562 C 480.871094 104.75 484.402344 106.113281 487.898438 107.558594 C 491.394531 109.007812 494.855469 110.539062 498.273438 112.15625 C 501.695312 113.773438 505.074219 115.472656 508.414062 117.253906 C 511.75 119.039062 515.042969 120.902344 518.289062 122.84375 C 521.53125 124.789062 524.730469 126.8125 527.875 128.914062 C 531.023438 131.015625 534.117188 133.191406 537.15625 135.445312 C 540.195312 137.695312 543.175781 140.023438 546.101562 142.421875 C 549.027344 144.820312 551.890625 147.289062 554.695312 149.832031 C 557.5 152.371094 560.242188 154.976562 562.917969 157.652344 C 565.59375 160.324219 568.199219 163.0625 570.742188 165.867188 C 573.285156 168.667969 575.753906 171.53125 578.15625 174.453125 C 580.554688 177.378906 582.882812 180.359375 585.136719 183.394531 C 587.390625 186.433594 589.570312 189.523438 591.671875 192.667969 C 593.777344 195.8125 595.800781 199.007812 597.746094 202.25 C 599.691406 205.492188 601.554688 208.785156 603.339844 212.117188 C 605.125 215.453125 606.824219 218.832031 608.441406 222.25 C 610.058594 225.667969 611.59375 229.125 613.042969 232.617188 C 614.488281 236.113281 615.851562 239.640625 617.125 243.199219 C 618.402344 246.761719 619.589844 250.351562 620.6875 253.96875 C 621.785156 257.589844 622.792969 261.234375 623.714844 264.902344 C 624.632812 268.570312 625.460938 272.257812 626.199219 275.96875 C 626.9375 279.675781 627.585938 283.402344 628.140625 287.140625 C 628.695312 290.882812 629.160156 294.636719 629.53125 298.398438 C 629.902344 302.164062 630.179688 305.933594 630.363281 309.710938 C 630.550781 313.488281 630.644531 317.265625 630.644531 321.046875 Z M 630.644531 321.046875"/><path fill="#9EC2CA" d="M 494.21875 321.046875 C 494.21875 322.597656 494.183594 324.148438 494.105469 325.699219 C 494.03125 327.246094 493.914062 328.792969 493.761719 330.335938 C 493.609375 331.878906 493.421875 333.417969 493.195312 334.949219 C 492.964844 336.484375 492.699219 338.011719 492.398438 339.53125 C 492.09375 341.054688 491.753906 342.566406 491.378906 344.070312 C 491 345.574219 490.585938 347.066406 490.136719 348.550781 C 489.6875 350.035156 489.199219 351.507812 488.675781 352.96875 C 488.15625 354.429688 487.597656 355.875 487.003906 357.304688 C 486.410156 358.738281 485.78125 360.15625 485.117188 361.558594 C 484.453125 362.960938 483.757812 364.34375 483.023438 365.710938 C 482.292969 367.078125 481.527344 368.429688 480.730469 369.757812 C 479.933594 371.089844 479.101562 372.398438 478.242188 373.6875 C 477.378906 374.976562 476.484375 376.242188 475.5625 377.488281 C 474.636719 378.734375 473.683594 379.957031 472.699219 381.15625 C 471.714844 382.355469 470.703125 383.527344 469.660156 384.675781 C 468.617188 385.824219 467.546875 386.949219 466.449219 388.042969 C 465.351562 389.140625 464.230469 390.210938 463.082031 391.25 C 461.929688 392.292969 460.757812 393.304688 459.554688 394.289062 C 458.355469 395.273438 457.132812 396.226562 455.886719 397.148438 C 454.640625 398.074219 453.375 398.964844 452.082031 399.828125 C 450.792969 400.6875 449.484375 401.519531 448.152344 402.316406 C 446.820312 403.113281 445.472656 403.875 444.101562 404.609375 C 442.734375 405.339844 441.347656 406.035156 439.945312 406.699219 C 438.542969 407.363281 437.125 407.988281 435.691406 408.582031 C 434.257812 409.175781 432.8125 409.734375 431.351562 410.257812 C 429.890625 410.78125 428.417969 411.265625 426.929688 411.714844 C 425.445312 412.164062 423.953125 412.578125 422.445312 412.957031 C 420.941406 413.332031 419.429688 413.671875 417.90625 413.976562 C 416.382812 414.277344 414.855469 414.542969 413.320312 414.769531 C 411.785156 414.996094 410.246094 415.1875 408.703125 415.339844 C 407.160156 415.492188 405.609375 415.605469 404.0625 415.679688 C 402.511719 415.757812 400.960938 415.796875 399.410156 415.796875 C 397.859375 415.796875 396.308594 415.757812 394.757812 415.679688 C 393.207031 415.605469 391.660156 415.492188 390.117188 415.339844 C 388.570312 415.1875 387.03125 414.996094 385.496094 414.769531 C 383.960938 414.542969 382.433594 414.277344 380.914062 413.976562 C 379.390625 413.671875 377.878906 413.332031 376.371094 412.957031 C 374.867188 412.578125 373.371094 412.164062 371.886719 411.714844 C 370.402344 411.265625 368.929688 410.78125 367.46875 410.257812 C 366.007812 409.734375 364.558594 409.175781 363.125 408.582031 C 361.691406 407.988281 360.273438 407.363281 358.871094 406.699219 C 357.46875 406.035156 356.085938 405.339844 354.714844 404.609375 C 353.347656 403.875 351.996094 403.113281 350.667969 402.316406 C 349.335938 401.519531 348.027344 400.6875 346.734375 399.828125 C 345.445312 398.964844 344.175781 398.074219 342.929688 397.148438 C 341.683594 396.226562 340.460938 395.273438 339.261719 394.289062 C 338.0625 393.304688 336.886719 392.292969 335.738281 391.25 C 334.589844 390.210938 333.464844 389.140625 332.367188 388.042969 C 331.269531 386.949219 330.203125 385.824219 329.160156 384.675781 C 328.117188 383.527344 327.105469 382.355469 326.121094 381.15625 C 325.136719 379.957031 324.179688 378.734375 323.257812 377.488281 C 322.332031 376.242188 321.4375 374.976562 320.578125 373.6875 C 319.714844 372.398438 318.886719 371.089844 318.085938 369.757812 C 317.289062 368.429688 316.523438 367.078125 315.792969 365.710938 C 315.0625 364.34375 314.363281 362.960938 313.703125 361.558594 C 313.039062 360.15625 312.410156 358.738281 311.816406 357.304688 C 311.222656 355.875 310.664062 354.429688 310.140625 352.96875 C 309.617188 351.507812 309.132812 350.035156 308.679688 348.550781 C 308.230469 347.066406 307.816406 345.574219 307.441406 344.070312 C 307.0625 342.566406 306.722656 341.054688 306.421875 339.53125 C 306.117188 338.011719 305.851562 336.484375 305.625 334.949219 C 305.398438 333.417969 305.207031 331.878906 305.054688 330.335938 C 304.902344 328.792969 304.789062 327.246094 304.710938 325.699219 C 304.636719 324.148438 304.597656 322.597656 304.597656 321.046875 C 304.597656 319.496094 304.636719 317.949219 304.710938 316.398438 C 304.789062 314.851562 304.902344 313.304688 305.054688 311.761719 C 305.207031 310.21875 305.398438 308.679688 305.625 307.144531 C 305.851562 305.613281 306.117188 304.085938 306.421875 302.5625 C 306.722656 301.042969 307.0625 299.53125 307.441406 298.027344 C 307.816406 296.523438 308.230469 295.027344 308.679688 293.542969 C 309.132812 292.0625 309.617188 290.589844 310.140625 289.128906 C 310.664062 287.667969 311.222656 286.222656 311.816406 284.789062 C 312.410156 283.359375 313.039062 281.941406 313.703125 280.539062 C 314.363281 279.136719 315.0625 277.753906 315.792969 276.386719 C 316.523438 275.015625 317.289062 273.667969 318.085938 272.339844 C 318.886719 271.007812 319.714844 269.699219 320.578125 268.410156 C 321.4375 267.121094 322.332031 265.851562 323.257812 264.609375 C 324.179688 263.363281 325.136719 262.140625 326.121094 260.941406 C 327.105469 259.742188 328.117188 258.570312 329.160156 257.421875 C 330.203125 256.269531 331.269531 255.148438 332.367188 254.050781 C 333.464844 252.957031 334.589844 251.886719 335.738281 250.84375 C 336.886719 249.804688 338.0625 248.792969 339.261719 247.808594 C 340.460938 246.824219 341.683594 245.871094 342.929688 244.945312 C 344.175781 244.023438 345.445312 243.128906 346.734375 242.269531 C 348.027344 241.40625 349.335938 240.578125 350.667969 239.78125 C 351.996094 238.984375 353.347656 238.21875 354.714844 237.488281 C 356.085938 236.757812 357.46875 236.0625 358.871094 235.398438 C 360.273438 234.734375 361.691406 234.105469 363.125 233.511719 C 364.558594 232.921875 366.007812 232.363281 367.46875 231.839844 C 368.929688 231.316406 370.402344 230.832031 371.886719 230.382812 C 373.371094 229.929688 374.867188 229.519531 376.371094 229.140625 C 377.878906 228.765625 379.390625 228.425781 380.914062 228.121094 C 382.433594 227.820312 383.960938 227.554688 385.496094 227.328125 C 387.03125 227.097656 388.570312 226.910156 390.117188 226.757812 C 391.660156 226.605469 393.207031 226.492188 394.757812 226.414062 C 396.308594 226.339844 397.859375 226.300781 399.410156 226.300781 C 400.960938 226.300781 402.511719 226.339844 404.0625 226.414062 C 405.609375 226.492188 407.160156 226.605469 408.703125 226.757812 C 410.246094 226.910156 411.785156 227.097656 413.320312 227.328125 C 414.855469 227.554688 416.382812 227.820312 417.90625 228.121094 C 419.429688 228.425781 420.941406 228.765625 422.445312 229.140625 C 423.953125 229.519531 425.445312 229.929688 426.929688 230.382812 C 428.417969 230.832031 429.890625 231.316406 431.351562 231.839844 C 432.8125 232.363281 434.257812 232.921875 435.691406 233.511719 C 437.125 234.105469 438.542969 234.734375 439.945312 235.398438 C 441.347656 236.0625 442.734375 236.757812 444.101562 237.488281 C 445.472656 238.21875 446.820312 238.984375 448.152344 239.78125 C 449.484375 240.578125 450.792969 241.40625 452.082031 242.269531 C 453.375 243.128906 454.640625 244.023438 455.886719 244.945312 C 457.132812 245.871094 458.355469 246.824219 459.554688 247.808594 C 460.757812 248.792969 461.929688 249.804688 463.082031 250.84375 C 464.230469 251.886719 465.351562 252.957031 466.449219 254.050781 C 467.546875 255.148438 468.617188 256.269531 469.660156 257.421875 C 470.703125 258.570312 471.714844 259.742188 472.699219 260.941406 C 473.683594 262.140625 474.636719 263.363281 475.5625 264.609375 C 476.484375 265.851562 477.378906 267.121094 478.242188 268.410156 C 479.105469 269.699219 479.933594 271.007812 480.730469 272.339844 C 481.527344 273.667969 482.292969 275.015625 483.023438 276.386719 C 483.757812 277.753906 484.453125 279.136719 485.117188 280.539062 C 485.78125 281.941406 486.410156 283.359375 487.003906 284.789062 C 487.597656 286.222656 488.15625 287.667969 488.675781 289.128906 C 489.199219 290.589844 489.6875 292.0625 490.136719 293.542969 C 490.585938 295.027344 491 296.523438 491.378906 298.027344 C 491.753906 299.53125 492.09375 301.042969 492.398438 302.5625 C 492.699219 304.085938 492.964844 305.613281 493.195312 307.144531 C 493.421875 308.679688 493.609375 310.21875 493.761719 311.761719 C 493.914062 313.304688 494.03125 314.851562 494.105469 316.398438 C 494.183594 317.949219 494.21875 319.496094 494.21875 321.046875 Z M 494.21875 321.046875"/><path d="M 235.796875 157.542969 C 326.113281 67.289062 472.703125 67.289062 563.023438 157.542969 C 653.339844 247.800781 653.339844 394.292969 563.023438 484.550781 Z M 235.796875 157.542969" fill-opacity=".149"/><path fill="#FFF" d="M 428.964844 321.046875 C 428.964844 322.015625 428.917969 322.980469 428.820312 323.945312 C 428.726562 324.90625 428.585938 325.863281 428.394531 326.808594 C 428.207031 327.757812 427.972656 328.695312 427.691406 329.621094 C 427.410156 330.546875 427.085938 331.457031 426.714844 332.351562 C 426.34375 333.246094 425.929688 334.117188 425.472656 334.972656 C 425.019531 335.824219 424.519531 336.652344 423.984375 337.457031 C 423.445312 338.261719 422.871094 339.039062 422.253906 339.785156 C 421.640625 340.53125 420.992188 341.25 420.308594 341.933594 C 419.625 342.617188 418.90625 343.265625 418.160156 343.878906 C 417.410156 344.492188 416.632812 345.066406 415.828125 345.605469 C 415.023438 346.144531 414.195312 346.640625 413.339844 347.09375 C 412.488281 347.550781 411.613281 347.964844 410.71875 348.335938 C 409.824219 348.703125 408.914062 349.03125 407.988281 349.3125 C 407.0625 349.59375 406.125 349.828125 405.175781 350.015625 C 404.226562 350.203125 403.269531 350.347656 402.304688 350.441406 C 401.34375 350.535156 400.378906 350.582031 399.410156 350.582031 C 398.441406 350.582031 397.476562 350.535156 396.511719 350.441406 C 395.550781 350.347656 394.59375 350.203125 393.644531 350.015625 C 392.695312 349.828125 391.757812 349.59375 390.832031 349.3125 C 389.902344 349.03125 388.992188 348.707031 388.097656 348.335938 C 387.203125 347.964844 386.332031 347.550781 385.476562 347.09375 C 384.625 346.640625 383.792969 346.144531 382.988281 345.605469 C 382.183594 345.066406 381.410156 344.492188 380.660156 343.878906 C 379.910156 343.265625 379.195312 342.617188 378.511719 341.933594 C 377.828125 341.25 377.175781 340.53125 376.5625 339.785156 C 375.949219 339.039062 375.375 338.261719 374.835938 337.457031 C 374.296875 336.652344 373.800781 335.824219 373.34375 334.972656 C 372.886719 334.117188 372.476562 333.246094 372.105469 332.351562 C 371.734375 331.457031 371.410156 330.546875 371.128906 329.621094 C 370.847656 328.695312 370.613281 327.757812 370.421875 326.808594 C 370.234375 325.863281 370.09375 324.90625 369.996094 323.945312 C 369.902344 322.980469 369.855469 322.015625 369.855469 321.046875 C 369.855469 320.082031 369.902344 319.117188 369.996094 318.152344 C 370.09375 317.191406 370.234375 316.234375 370.421875 315.285156 C 370.613281 314.335938 370.847656 313.402344 371.128906 312.476562 C 371.410156 311.550781 371.734375 310.640625 372.105469 309.746094 C 372.476562 308.851562 372.886719 307.980469 373.34375 307.125 C 373.800781 306.273438 374.296875 305.445312 374.835938 304.640625 C 375.375 303.835938 375.949219 303.058594 376.5625 302.3125 C 377.175781 301.5625 377.828125 300.847656 378.511719 300.164062 C 379.195312 299.480469 379.910156 298.832031 380.660156 298.21875 C 381.410156 297.605469 382.183594 297.027344 382.988281 296.492188 C 383.792969 295.953125 384.625 295.457031 385.476562 295 C 386.332031 294.546875 387.203125 294.132812 388.097656 293.761719 C 388.992188 293.390625 389.902344 293.066406 390.832031 292.785156 C 391.757812 292.503906 392.695312 292.269531 393.644531 292.082031 C 394.59375 291.894531 395.550781 291.75 396.511719 291.65625 C 397.476562 291.5625 398.441406 291.515625 399.410156 291.515625 C 400.378906 291.515625 401.34375 291.5625 402.304688 291.65625 C 403.269531 291.75 404.226562 291.894531 405.175781 292.082031 C 406.125 292.269531 407.0625 292.503906 407.988281 292.785156 C 408.914062 293.066406 409.824219 293.390625 410.71875 293.761719 C 411.613281 294.132812 412.488281 294.546875 413.339844 295 C 414.195312 295.457031 415.023438 295.953125 415.828125 296.492188 C 416.632812 297.027344 417.410156 297.605469 418.160156 298.21875 C 418.90625 298.832031 419.625 299.480469 420.308594 300.164062 C 420.992188 300.847656 421.640625 301.5625 422.253906 302.3125 C 422.871094 303.058594 423.445312 303.835938 423.984375 304.640625 C 424.519531 305.445312 425.019531 306.273438 425.472656 307.125 C 425.929688 307.980469 426.34375 308.851562 426.714844 309.746094 C 427.085938 310.640625 427.410156 311.550781 427.691406 312.476562 C 427.972656 313.402344 428.207031 314.335938 428.394531 315.285156 C 428.585938 316.234375 428.726562 317.191406 428.820312 318.152344 C 428.917969 319.117188 428.964844 320.082031 428.964844 321.046875 Z M 428.964844 321.046875"/><path fill="#787182" d="M 399.410156 297.65625 C 405.554688 297.65625 411.46875 300.019531 415.960938 304.507812 C 420.453125 309 422.816406 314.90625 422.816406 321.046875 C 422.816406 327.191406 420.453125 333.097656 415.960938 337.585938 C 411.46875 342.078125 405.558594 344.441406 399.410156 344.441406 C 393.261719 344.441406 387.351562 342.078125 382.859375 337.585938 C 378.367188 333.097656 376.003906 327.191406 376.003906 321.046875 C 376.003906 314.90625 378.367188 309 382.859375 304.507812 C 387.351562 300.019531 393.261719 297.65625 399.410156 297.65625 M 399.410156 291.515625 C 391.84375 291.515625 384.277344 294.347656 378.601562 300.257812 C 367.019531 311.832031 367.019531 330.5 378.601562 342.078125 C 384.277344 347.746094 391.84375 350.820312 399.410156 350.820312 C 406.976562 350.820312 414.542969 347.984375 420.214844 342.078125 C 431.800781 330.5 431.800781 311.832031 420.214844 300.257812 C 414.542969 294.347656 406.976562 291.515625 399.410156 291.515625 Z M 399.410156 291.515625"/><path d="M 307.671875 22.160156 L 530.632812 22.160156 L 530.632812 42.003906 L 307.671875 42.003906 Z M 307.671875 22.160156" fill-opacity=".149"/><path d="M 673.675781 76.265625 C 673.675781 77.347656 673.648438 78.429688 673.59375 79.511719 C 673.542969 80.59375 673.460938 81.671875 673.355469 82.75 C 673.25 83.828125 673.117188 84.902344 672.957031 85.972656 C 672.800781 87.042969 672.613281 88.109375 672.402344 89.171875 C 672.191406 90.234375 671.953125 91.289062 671.691406 92.339844 C 671.425781 93.390625 671.136719 94.433594 670.824219 95.46875 C 670.507812 96.507812 670.167969 97.535156 669.804688 98.554688 C 669.441406 99.574219 669.050781 100.582031 668.636719 101.582031 C 668.21875 102.582031 667.78125 103.574219 667.320312 104.550781 C 666.855469 105.53125 666.367188 106.496094 665.859375 107.453125 C 665.347656 108.40625 664.8125 109.347656 664.253906 110.277344 C 663.699219 111.207031 663.121094 112.121094 662.515625 113.019531 C 661.914062 113.921875 661.292969 114.804688 660.644531 115.675781 C 660 116.546875 659.335938 117.398438 658.648438 118.234375 C 657.960938 119.074219 657.253906 119.890625 656.523438 120.695312 C 655.796875 121.496094 655.050781 122.28125 654.285156 123.046875 C 653.519531 123.8125 652.734375 124.558594 651.929688 125.285156 C 651.128906 126.011719 650.308594 126.71875 649.472656 127.40625 C 648.632812 128.09375 647.78125 128.757812 646.910156 129.402344 C 646.039062 130.050781 645.152344 130.671875 644.253906 131.273438 C 643.351562 131.875 642.4375 132.453125 641.507812 133.011719 C 640.578125 133.566406 639.636719 134.101562 638.679688 134.613281 C 637.722656 135.121094 636.757812 135.609375 635.777344 136.070312 C 634.796875 136.535156 633.808594 136.972656 632.808594 137.386719 C 631.804688 137.800781 630.796875 138.191406 629.773438 138.554688 C 628.753906 138.921875 627.726562 139.261719 626.691406 139.574219 C 625.652344 139.890625 624.609375 140.175781 623.558594 140.441406 C 622.507812 140.703125 621.449219 140.941406 620.386719 141.152344 C 619.324219 141.363281 618.257812 141.546875 617.1875 141.707031 C 616.113281 141.867188 615.039062 142 613.960938 142.105469 C 612.882812 142.210938 611.804688 142.289062 610.722656 142.34375 C 609.640625 142.398438 608.554688 142.421875 607.472656 142.421875 C 606.390625 142.421875 605.304688 142.398438 604.222656 142.34375 C 603.140625 142.289062 602.0625 142.210938 600.984375 142.105469 C 599.90625 142 598.832031 141.867188 597.757812 141.707031 C 596.6875 141.546875 595.621094 141.363281 594.558594 141.152344 C 593.496094 140.941406 592.4375 140.703125 591.386719 140.441406 C 590.335938 140.175781 589.292969 139.890625 588.253906 139.574219 C 587.21875 139.261719 586.191406 138.921875 585.167969 138.554688 C 584.148438 138.191406 583.140625 137.800781 582.136719 137.386719 C 581.136719 136.972656 580.148438 136.535156 579.167969 136.070312 C 578.1875 135.609375 577.222656 135.121094 576.265625 134.613281 C 575.308594 134.101562 574.367188 133.566406 573.4375 133.011719 C 572.507812 132.453125 571.59375 131.875 570.691406 131.273438 C 569.792969 130.671875 568.90625 130.050781 568.035156 129.402344 C 567.164062 128.757812 566.3125 128.09375 565.472656 127.40625 C 564.636719 126.71875 563.816406 126.011719 563.015625 125.285156 C 562.210938 124.558594 561.425781 123.8125 560.660156 123.046875 C 559.894531 122.28125 559.148438 121.496094 558.421875 120.695312 C 557.691406 119.890625 556.984375 119.074219 556.296875 118.234375 C 555.609375 117.398438 554.945312 116.546875 554.296875 115.675781 C 553.652344 114.804688 553.03125 113.921875 552.425781 113.019531 C 551.824219 112.121094 551.246094 111.207031 550.6875 110.277344 C 550.132812 109.347656 549.597656 108.40625 549.085938 107.453125 C 548.578125 106.496094 548.089844 105.53125 547.625 104.550781 C 547.164062 103.574219 546.722656 102.582031 546.308594 101.582031 C 545.894531 100.582031 545.503906 99.574219 545.140625 98.554688 C 544.777344 97.535156 544.4375 96.507812 544.121094 95.46875 C 543.808594 94.433594 543.519531 93.390625 543.253906 92.339844 C 542.992188 91.289062 542.753906 90.234375 542.542969 89.171875 C 542.332031 88.109375 542.144531 87.042969 541.988281 85.972656 C 541.828125 84.902344 541.695312 83.828125 541.589844 82.75 C 541.484375 81.671875 541.402344 80.59375 541.351562 79.511719 C 541.296875 78.429688 541.269531 77.347656 541.269531 76.265625 C 541.269531 75.183594 541.296875 74.101562 541.351562 73.019531 C 541.402344 71.9375 541.484375 70.859375 541.589844 69.78125 C 541.695312 68.703125 541.828125 67.628906 541.988281 66.558594 C 542.144531 65.488281 542.332031 64.421875 542.542969 63.359375 C 542.753906 62.296875 542.992188 61.242188 543.253906 60.191406 C 543.519531 59.140625 543.808594 58.097656 544.121094 57.0625 C 544.4375 56.023438 544.777344 54.996094 545.140625 53.976562 C 545.503906 52.957031 545.894531 51.949219 546.308594 50.949219 C 546.722656 49.949219 547.164062 48.957031 547.625 47.980469 C 548.089844 47 548.578125 46.035156 549.085938 45.078125 C 549.597656 44.125 550.132812 43.183594 550.6875 42.253906 C 551.246094 41.324219 551.824219 40.410156 552.425781 39.511719 C 553.03125 38.609375 553.652344 37.726562 554.296875 36.855469 C 554.945312 35.984375 555.609375 35.132812 556.296875 34.296875 C 556.984375 33.457031 557.691406 32.640625 558.421875 31.835938 C 559.148438 31.035156 559.894531 30.25 560.660156 29.484375 C 561.425781 28.71875 562.210938 27.972656 563.015625 27.246094 C 563.816406 26.519531 564.636719 25.8125 565.472656 25.125 C 566.3125 24.4375 567.164062 23.773438 568.035156 23.128906 C 568.90625 22.484375 569.792969 21.859375 570.691406 21.257812 C 571.59375 20.65625 572.507812 20.078125 573.4375 19.519531 C 574.367188 18.964844 575.308594 18.429688 576.265625 17.921875 C 577.222656 17.410156 578.1875 16.921875 579.167969 16.460938 C 580.148438 15.996094 581.136719 15.558594 582.136719 15.144531 C 583.140625 14.730469 584.148438 14.339844 585.167969 13.976562 C 586.191406 13.609375 587.21875 13.269531 588.253906 12.957031 C 589.292969 12.640625 590.335938 12.355469 591.386719 12.089844 C 592.4375 11.828125 593.496094 11.589844 594.558594 11.378906 C 595.621094 11.167969 596.6875 10.984375 597.757812 10.824219 C 598.832031 10.664062 599.90625 10.53125 600.984375 10.425781 C 602.0625 10.320312 603.140625 10.242188 604.222656 10.1875 C 605.304688 10.132812 606.390625 10.109375 607.472656 10.109375 C 608.554688 10.109375 609.640625 10.132812 610.722656 10.1875 C 611.804688 10.242188 612.882812 10.320312 613.960938 10.425781 C 615.039062 10.53125 616.113281 10.664062 617.1875 10.824219 C 618.257812 10.984375 619.324219 11.167969 620.386719 11.378906 C 621.449219 11.589844 622.507812 11.828125 623.558594 12.089844 C 624.609375 12.355469 625.652344 12.640625 626.691406 12.957031 C 627.726562 13.269531 628.753906 13.609375 629.773438 13.976562 C 630.796875 14.339844 631.804688 14.730469 632.808594 15.144531 C 633.808594 15.558594 634.796875 15.996094 635.777344 16.460938 C 636.757812 16.921875 637.722656 17.410156 638.679688 17.921875 C 639.636719 18.429688 640.578125 18.964844 641.507812 19.519531 C 642.4375 20.078125 643.351562 20.65625 644.253906 21.257812 C 645.152344 21.859375 646.039062 22.484375 646.910156 23.128906 C 647.78125 23.773438 648.632812 24.4375 649.472656 25.125 C 650.308594 25.8125 651.128906 26.519531 651.929688 27.246094 C 652.734375 27.972656 653.519531 28.71875 654.285156 29.484375 C 655.050781 30.25 655.796875 31.035156 656.523438 31.835938 C 657.253906 32.640625 657.960938 33.457031 658.648438 34.296875 C 659.335938 35.132812 660 35.984375 660.644531 36.855469 C 661.292969 37.726562 661.914062 38.609375 662.515625 39.511719 C 663.121094 40.410156 663.699219 41.324219 664.257812 42.253906 C 664.8125 43.183594 665.347656 44.125 665.859375 45.078125 C 666.367188 46.035156 666.855469 47 667.320312 47.980469 C 667.78125 48.957031 668.21875 49.949219 668.636719 50.949219 C 669.050781 51.949219 669.441406 52.957031 669.804688 53.976562 C 670.167969 54.996094 670.507812 56.023438 670.824219 57.0625 C 671.136719 58.097656 671.425781 59.140625 671.691406 60.191406 C 671.953125 61.242188 672.191406 62.296875 672.402344 63.359375 C 672.613281 64.421875 672.800781 65.488281 672.957031 66.558594 C 673.117188 67.628906 673.25 68.703125 673.355469 69.78125 C 673.460938 70.859375 673.542969 71.9375 673.59375 73.019531 C 673.648438 74.101562 673.675781 75.183594 673.675781 76.265625 Z M 673.675781 76.265625" fill-opacity=".149"/><path d="M 638.210938 76.265625 C 638.210938 77.273438 638.160156 78.273438 638.0625 79.277344 C 637.960938 80.277344 637.816406 81.269531 637.617188 82.257812 C 637.421875 83.246094 637.179688 84.21875 636.886719 85.183594 C 636.59375 86.144531 636.253906 87.089844 635.871094 88.019531 C 635.484375 88.949219 635.054688 89.859375 634.578125 90.746094 C 634.105469 91.632812 633.589844 92.492188 633.027344 93.332031 C 632.46875 94.167969 631.871094 94.972656 631.230469 95.75 C 630.59375 96.53125 629.917969 97.273438 629.207031 97.984375 C 628.496094 98.695312 627.75 99.371094 626.972656 100.007812 C 626.195312 100.648438 625.386719 101.246094 624.550781 101.804688 C 623.710938 102.363281 622.847656 102.878906 621.960938 103.355469 C 621.074219 103.828125 620.164062 104.257812 619.234375 104.644531 C 618.304688 105.027344 617.359375 105.367188 616.394531 105.660156 C 615.433594 105.949219 614.457031 106.195312 613.46875 106.390625 C 612.480469 106.585938 611.488281 106.734375 610.484375 106.832031 C 609.484375 106.933594 608.480469 106.980469 607.472656 106.980469 C 606.464844 106.980469 605.460938 106.933594 604.460938 106.832031 C 603.457031 106.734375 602.464844 106.585938 601.476562 106.390625 C 600.488281 106.195312 599.511719 105.949219 598.550781 105.660156 C 597.585938 105.367188 596.640625 105.027344 595.710938 104.644531 C 594.78125 104.257812 593.871094 103.828125 592.984375 103.355469 C 592.09375 102.878906 591.234375 102.363281 590.394531 101.804688 C 589.558594 101.246094 588.75 100.648438 587.972656 100.007812 C 587.195312 99.371094 586.449219 98.695312 585.738281 97.984375 C 585.027344 97.273438 584.351562 96.53125 583.714844 95.75 C 583.074219 94.972656 582.476562 94.167969 581.917969 93.332031 C 581.355469 92.492188 580.839844 91.632812 580.367188 90.746094 C 579.890625 89.859375 579.460938 88.949219 579.074219 88.019531 C 578.691406 87.089844 578.351562 86.144531 578.058594 85.183594 C 577.765625 84.21875 577.523438 83.246094 577.328125 82.257812 C 577.128906 81.269531 576.984375 80.277344 576.882812 79.277344 C 576.785156 78.273438 576.734375 77.273438 576.734375 76.265625 C 576.734375 75.257812 576.785156 74.257812 576.882812 73.253906 C 576.984375 72.253906 577.128906 71.261719 577.328125 70.273438 C 577.523438 69.285156 577.765625 68.3125 578.058594 67.347656 C 578.351562 66.386719 578.691406 65.441406 579.074219 64.511719 C 579.460938 63.582031 579.890625 62.671875 580.367188 61.785156 C 580.839844 60.898438 581.355469 60.039062 581.914062 59.199219 C 582.476562 58.363281 583.074219 57.558594 583.710938 56.78125 C 584.351562 56.003906 585.027344 55.257812 585.738281 54.546875 C 586.449219 53.835938 587.195312 53.160156 587.972656 52.523438 C 588.75 51.882812 589.558594 51.285156 590.394531 50.726562 C 591.234375 50.167969 592.09375 49.652344 592.984375 49.175781 C 593.871094 48.703125 594.78125 48.273438 595.710938 47.886719 C 596.640625 47.503906 597.585938 47.164062 598.550781 46.871094 C 599.511719 46.582031 600.488281 46.335938 601.476562 46.140625 C 602.464844 45.945312 603.457031 45.796875 604.460938 45.699219 C 605.460938 45.597656 606.464844 45.550781 607.472656 45.550781 C 608.480469 45.550781 609.484375 45.597656 610.484375 45.699219 C 611.488281 45.796875 612.480469 45.945312 613.46875 46.140625 C 614.457031 46.335938 615.433594 46.582031 616.394531 46.871094 C 617.359375 47.164062 618.304688 47.503906 619.234375 47.886719 C 620.164062 48.273438 621.074219 48.703125 621.960938 49.175781 C 622.847656 49.652344 623.710938 50.167969 624.550781 50.726562 C 625.386719 51.285156 626.195312 51.882812 626.972656 52.523438 C 627.75 53.160156 628.496094 53.835938 629.207031 54.546875 C 629.917969 55.257812 630.59375 56.003906 631.230469 56.78125 C 631.871094 57.558594 632.46875 58.363281 633.027344 59.199219 C 633.589844 60.039062 634.105469 60.898438 634.578125 61.785156 C 635.054688 62.671875 635.484375 63.582031 635.871094 64.511719 C 636.253906 65.441406 636.59375 66.386719 636.886719 67.347656 C 637.179688 68.3125 637.421875 69.285156 637.617188 70.273438 C 637.816406 71.261719 637.960938 72.253906 638.0625 73.253906 C 638.160156 74.257812 638.210938 75.257812 638.210938 76.265625 Z M 638.210938 76.265625" fill-opacity=".149"/><path fill="#E4E5E5" d="M 240.289062 68.46875 C 240.289062 70.101562 240.207031 71.730469 240.046875 73.355469 C 239.886719 74.980469 239.648438 76.59375 239.328125 78.195312 C 239.011719 79.796875 238.613281 81.378906 238.140625 82.941406 C 237.664062 84.503906 237.117188 86.039062 236.492188 87.546875 C 235.867188 89.054688 235.167969 90.53125 234.398438 91.96875 C 233.628906 93.410156 232.789062 94.808594 231.878906 96.167969 C 230.972656 97.523438 230 98.832031 228.964844 100.097656 C 227.925781 101.359375 226.832031 102.566406 225.675781 103.722656 C 224.519531 104.875 223.3125 105.96875 222.046875 107.007812 C 220.785156 108.042969 219.476562 109.015625 218.117188 109.921875 C 216.757812 110.828125 215.359375 111.667969 213.917969 112.4375 C 212.476562 113.207031 211 113.902344 209.492188 114.527344 C 207.980469 115.152344 206.445312 115.703125 204.882812 116.175781 C 203.320312 116.648438 201.734375 117.046875 200.132812 117.363281 C 198.53125 117.683594 196.917969 117.921875 195.289062 118.082031 C 193.664062 118.242188 192.035156 118.324219 190.398438 118.324219 C 188.765625 118.324219 187.136719 118.242188 185.511719 118.082031 C 183.882812 117.921875 182.269531 117.683594 180.667969 117.363281 C 179.066406 117.046875 177.480469 116.648438 175.917969 116.175781 C 174.355469 115.703125 172.820312 115.152344 171.308594 114.527344 C 169.800781 113.902344 168.324219 113.207031 166.882812 112.4375 C 165.441406 111.667969 164.042969 110.828125 162.683594 109.921875 C 161.324219 109.015625 160.015625 108.042969 158.75 107.007812 C 157.488281 105.96875 156.28125 104.875 155.125 103.722656 C 153.96875 102.566406 152.871094 101.359375 151.835938 100.097656 C 150.800781 98.832031 149.828125 97.523438 148.921875 96.167969 C 148.011719 94.808594 147.171875 93.410156 146.402344 91.96875 C 145.632812 90.53125 144.933594 89.054688 144.308594 87.546875 C 143.683594 86.039062 143.136719 84.503906 142.660156 82.941406 C 142.1875 81.378906 141.789062 79.796875 141.472656 78.195312 C 141.152344 76.59375 140.914062 74.980469 140.753906 73.355469 C 140.59375 71.730469 140.511719 70.101562 140.511719 68.46875 C 140.511719 66.835938 140.59375 65.207031 140.753906 63.582031 C 140.914062 61.957031 141.152344 60.34375 141.472656 58.742188 C 141.789062 57.140625 142.1875 55.558594 142.660156 53.996094 C 143.136719 52.433594 143.683594 50.898438 144.308594 49.390625 C 144.933594 47.882812 145.632812 46.40625 146.402344 44.96875 C 147.171875 43.527344 148.011719 42.128906 148.921875 40.769531 C 149.828125 39.414062 150.800781 38.101562 151.835938 36.839844 C 152.871094 35.578125 153.96875 34.371094 155.125 33.214844 C 156.28125 32.0625 157.488281 30.964844 158.75 29.929688 C 160.015625 28.894531 161.324219 27.921875 162.683594 27.015625 C 164.042969 26.109375 165.441406 25.269531 166.882812 24.5 C 168.324219 23.730469 169.800781 23.035156 171.308594 22.410156 C 172.820312 21.785156 174.355469 21.234375 175.917969 20.761719 C 177.480469 20.285156 179.066406 19.890625 180.667969 19.570312 C 182.269531 19.253906 183.882812 19.015625 185.511719 18.855469 C 187.136719 18.695312 188.765625 18.613281 190.398438 18.613281 C 192.035156 18.613281 193.664062 18.695312 195.289062 18.855469 C 196.917969 19.015625 198.53125 19.253906 200.132812 19.570312 C 201.734375 19.890625 203.320312 20.285156 204.882812 20.761719 C 206.445312 21.234375 207.980469 21.785156 209.492188 22.410156 C 211 23.035156 212.476562 23.730469 213.917969 24.5 C 215.359375 25.269531 216.757812 26.109375 218.117188 27.015625 C 219.476562 27.921875 220.785156 28.894531 222.046875 29.929688 C 223.3125 30.964844 224.519531 32.0625 225.675781 33.214844 C 226.832031 34.371094 227.925781 35.578125 228.964844 36.839844 C 230 38.101562 230.972656 39.414062 231.878906 40.769531 C 232.789062 42.128906 233.628906 43.527344 234.398438 44.96875 C 235.167969 46.40625 235.867188 47.882812 236.492188 49.390625 C 237.117188 50.898438 237.664062 52.433594 238.140625 53.996094 C 238.613281 55.558594 239.011719 57.140625 239.328125 58.742188 C 239.648438 60.34375 239.886719 61.957031 240.046875 63.582031 C 240.207031 65.207031 240.289062 66.835938 240.289062 68.46875 Z M 240.289062 68.46875"/><path fill="#E4E5E5" d="M 293.484375 42.003906 C 293.484375 42.65625 293.453125 43.304688 293.390625 43.949219 C 293.328125 44.597656 293.230469 45.238281 293.105469 45.878906 C 292.976562 46.515625 292.820312 47.144531 292.632812 47.765625 C 292.441406 48.390625 292.222656 49 291.972656 49.601562 C 291.726562 50.203125 291.449219 50.789062 291.140625 51.363281 C 290.835938 51.933594 290.5 52.492188 290.140625 53.03125 C 289.777344 53.574219 289.390625 54.09375 288.976562 54.597656 C 288.566406 55.097656 288.128906 55.578125 287.667969 56.039062 C 287.210938 56.5 286.726562 56.933594 286.226562 57.347656 C 285.722656 57.761719 285.199219 58.148438 284.660156 58.507812 C 284.117188 58.867188 283.5625 59.203125 282.988281 59.507812 C 282.414062 59.816406 281.828125 60.09375 281.226562 60.34375 C 280.625 60.589844 280.011719 60.808594 279.390625 61 C 278.769531 61.1875 278.136719 61.34375 277.5 61.472656 C 276.863281 61.597656 276.21875 61.695312 275.570312 61.757812 C 274.925781 61.820312 274.277344 61.851562 273.625 61.851562 C 272.976562 61.851562 272.328125 61.820312 271.679688 61.757812 C 271.03125 61.695312 270.390625 61.597656 269.75 61.472656 C 269.113281 61.34375 268.484375 61.1875 267.859375 61 C 267.238281 60.808594 266.625 60.589844 266.023438 60.34375 C 265.425781 60.09375 264.835938 59.816406 264.261719 59.507812 C 263.691406 59.203125 263.132812 58.867188 262.589844 58.507812 C 262.050781 58.148438 261.527344 57.761719 261.027344 57.347656 C 260.523438 56.933594 260.042969 56.5 259.582031 56.039062 C 259.121094 55.578125 258.6875 55.097656 258.273438 54.597656 C 257.859375 54.09375 257.472656 53.574219 257.113281 53.03125 C 256.75 52.492188 256.417969 51.933594 256.109375 51.363281 C 255.804688 50.789062 255.527344 50.203125 255.277344 49.601562 C 255.027344 49 254.808594 48.390625 254.621094 47.765625 C 254.429688 47.144531 254.273438 46.515625 254.148438 45.878906 C 254.019531 45.238281 253.925781 44.597656 253.859375 43.949219 C 253.796875 43.304688 253.765625 42.65625 253.765625 42.003906 C 253.765625 41.355469 253.796875 40.707031 253.859375 40.058594 C 253.925781 39.414062 254.019531 38.769531 254.148438 38.132812 C 254.273438 37.496094 254.429688 36.867188 254.621094 36.246094 C 254.808594 35.621094 255.027344 35.011719 255.277344 34.410156 C 255.527344 33.808594 255.804688 33.222656 256.109375 32.648438 C 256.417969 32.078125 256.75 31.519531 257.113281 30.980469 C 257.472656 30.4375 257.859375 29.917969 258.273438 29.414062 C 258.6875 28.910156 259.121094 28.429688 259.582031 27.972656 C 260.042969 27.511719 260.523438 27.074219 261.027344 26.664062 C 261.527344 26.25 262.050781 25.863281 262.589844 25.503906 C 263.132812 25.140625 263.691406 24.808594 264.261719 24.5 C 264.835938 24.195312 265.425781 23.917969 266.023438 23.667969 C 266.625 23.421875 267.238281 23.203125 267.859375 23.011719 C 268.484375 22.824219 269.113281 22.667969 269.75 22.539062 C 270.390625 22.414062 271.03125 22.316406 271.679688 22.253906 C 272.328125 22.191406 272.976562 22.160156 273.625 22.160156 C 274.277344 22.160156 274.925781 22.191406 275.570312 22.253906 C 276.21875 22.316406 276.863281 22.414062 277.5 22.539062 C 278.136719 22.667969 278.769531 22.824219 279.390625 23.011719 C 280.011719 23.203125 280.625 23.421875 281.226562 23.667969 C 281.828125 23.917969 282.414062 24.195312 282.988281 24.5 C 283.5625 24.808594 284.117188 25.140625 284.660156 25.503906 C 285.199219 25.863281 285.722656 26.25 286.226562 26.664062 C 286.726562 27.074219 287.210938 27.511719 287.667969 27.972656 C 288.128906 28.429688 288.566406 28.910156 288.976562 29.414062 C 289.390625 29.917969 289.777344 30.4375 290.140625 30.980469 C 290.5 31.519531 290.835938 32.078125 291.140625 32.648438 C 291.449219 33.222656 291.726562 33.808594 291.972656 34.410156 C 292.222656 35.011719 292.441406 35.621094 292.632812 36.246094 C 292.820312 36.867188 292.976562 37.496094 293.105469 38.132812 C 293.230469 38.769531 293.328125 39.414062 293.390625 40.058594 C 293.453125 40.707031 293.484375 41.355469 293.484375 42.003906 Z M 293.484375 42.003906"/><path fill="#E4E5E5" d="M 481.214844 55.238281 L 460.171875 55.238281 C 458.753906 55.238281 457.808594 54.054688 457.808594 52.875 L 457.808594 11.054688 C 457.808594 9.636719 458.992188 8.691406 460.171875 8.691406 L 481.214844 8.691406 C 482.632812 8.691406 483.582031 9.871094 483.582031 11.054688 L 483.582031 52.875 C 483.582031 54.292969 482.632812 55.238281 481.214844 55.238281 Z M 481.214844 55.238281"/><path fill="#E4E5E5" d="M 617.402344 205.980469 L 617.402344 349.875 L 520.699219 446.511719 L 506.515625 432.097656 L 597.070312 341.605469 L 597.070312 205.980469 Z M 617.402344 205.980469"/><path fill="#FCCA64" d="M 497.53125 474.15625 L 477.90625 454.542969 C 476.25 452.890625 476.25 450.527344 477.90625 448.875 L 503.914062 422.882812 C 505.570312 421.230469 507.933594 421.230469 509.589844 422.882812 L 529.210938 442.496094 C 530.867188 444.148438 530.867188 446.511719 529.210938 448.164062 L 503.203125 474.15625 C 501.550781 475.808594 499.183594 475.808594 497.53125 474.15625 Z M 497.53125 474.15625"/><path fill="#FCCA64" d="M 625.441406 214.960938 L 589.738281 214.960938 L 589.738281 68.941406 C 589.738281 65.160156 592.8125 62.089844 596.597656 62.089844 L 618.820312 62.089844 C 622.605469 62.089844 625.679688 65.160156 625.679688 68.941406 L 625.679688 214.960938 Z M 625.441406 214.960938"/><path d="M 181.886719 512.433594 L 154.699219 512.433594 C 153.28125 512.433594 152.097656 511.25 152.097656 509.832031 L 152.097656 501.089844 C 152.097656 499.671875 153.28125 498.492188 154.699219 498.492188 L 181.886719 498.492188 C 183.308594 498.492188 184.488281 499.671875 184.488281 501.089844 L 184.488281 509.832031 C 184.488281 511.25 183.308594 512.433594 181.886719 512.433594 Z M 181.886719 512.433594" fill-opacity=".149"/><path d="M 181.886719 534.40625 L 154.699219 534.40625 C 153.28125 534.40625 152.097656 533.226562 152.097656 531.808594 L 152.097656 523.066406 C 152.097656 521.648438 153.28125 520.464844 154.699219 520.464844 L 181.886719 520.464844 C 183.308594 520.464844 184.488281 521.648438 184.488281 523.066406 L 184.488281 531.808594 C 184.488281 533.226562 183.308594 534.40625 181.886719 534.40625 Z M 181.886719 534.40625" fill-opacity=".149"/><path d="M 654.285156 512.433594 L 627.097656 512.433594 C 625.679688 512.433594 624.496094 511.25 624.496094 509.832031 L 624.496094 501.089844 C 624.496094 499.671875 625.679688 498.492188 627.097656 498.492188 L 654.285156 498.492188 C 655.707031 498.492188 656.886719 499.671875 656.886719 501.089844 L 656.886719 509.832031 C 656.886719 511.25 655.707031 512.433594 654.285156 512.433594 Z M 654.285156 512.433594" fill-opacity=".149"/><path d="M 654.285156 534.40625 L 627.097656 534.40625 C 625.679688 534.40625 624.496094 533.226562 624.496094 531.808594 L 624.496094 523.066406 C 624.496094 521.648438 625.679688 520.464844 627.097656 520.464844 L 654.285156 520.464844 C 655.707031 520.464844 656.886719 521.648438 656.886719 523.066406 L 656.886719 531.808594 C 656.886719 533.226562 655.707031 534.40625 654.285156 534.40625 Z M 654.285156 534.40625" fill-opacity=".149"/><path d="M 589.738281 205.980469 L 625.441406 205.980469 L 625.441406 214.722656 L 589.738281 214.722656 Z M 589.738281 205.980469" fill-opacity=".149"/><path d="M 167.230469 99.421875 L 158.007812 90.207031 C 156.355469 88.550781 156.355469 86.1875 158.007812 84.535156 L 206.476562 36.097656 C 208.132812 34.445312 210.496094 34.445312 212.152344 36.097656 L 221.375 45.3125 C 223.027344 46.96875 223.027344 49.332031 221.375 50.984375 L 172.667969 99.421875 C 171.25 100.839844 168.648438 100.839844 167.230469 99.421875 Z M 167.230469 99.421875" fill-opacity=".149"/><path d="M 283.792969 42.003906 C 283.792969 42.671875 283.726562 43.332031 283.597656 43.988281 C 283.464844 44.640625 283.273438 45.277344 283.019531 45.894531 C 282.761719 46.511719 282.449219 47.09375 282.078125 47.648438 C 281.707031 48.203125 281.285156 48.71875 280.816406 49.191406 C 280.34375 49.660156 279.828125 50.082031 279.273438 50.453125 C 278.71875 50.824219 278.132812 51.136719 277.515625 51.390625 C 276.898438 51.648438 276.265625 51.839844 275.609375 51.96875 C 274.953125 52.101562 274.292969 52.164062 273.625 52.164062 C 272.957031 52.164062 272.296875 52.101562 271.640625 51.96875 C 270.988281 51.839844 270.351562 51.648438 269.734375 51.390625 C 269.117188 51.136719 268.53125 50.824219 267.976562 50.453125 C 267.421875 50.082031 266.910156 49.660156 266.4375 49.191406 C 265.964844 48.71875 265.542969 48.203125 265.171875 47.648438 C 264.800781 47.09375 264.488281 46.511719 264.234375 45.894531 C 263.976562 45.277344 263.785156 44.640625 263.652344 43.988281 C 263.523438 43.332031 263.457031 42.671875 263.457031 42.003906 C 263.457031 41.339844 263.523438 40.675781 263.652344 40.023438 C 263.785156 39.367188 263.976562 38.734375 264.234375 38.117188 C 264.488281 37.5 264.800781 36.914062 265.171875 36.359375 C 265.542969 35.804688 265.964844 35.292969 266.4375 34.820312 C 266.910156 34.351562 267.421875 33.929688 267.976562 33.558594 C 268.53125 33.1875 269.117188 32.875 269.734375 32.617188 C 270.351562 32.363281 270.988281 32.171875 271.640625 32.039062 C 272.296875 31.910156 272.957031 31.84375 273.625 31.84375 C 274.292969 31.84375 274.953125 31.910156 275.609375 32.039062 C 276.265625 32.171875 276.898438 32.363281 277.515625 32.617188 C 278.132812 32.875 278.71875 33.1875 279.273438 33.558594 C 279.828125 33.929688 280.34375 34.351562 280.816406 34.820312 C 281.285156 35.292969 281.707031 35.804688 282.078125 36.359375 C 282.449219 36.914062 282.761719 37.5 283.019531 38.117188 C 283.273438 38.734375 283.464844 39.367188 283.597656 40.023438 C 283.726562 40.675781 283.792969 41.339844 283.792969 42.003906 Z M 283.792969 42.003906" fill-opacity=".149"/></svg>